<?xml version="1.0" standalone="no"?>
<!DOCTYPE svg PUBLIC "-//W3C//DTD SVG 20010904//EN"
 "http://www.w3.org/TR/2001/REC-SVG-20010904/DTD/svg10.dtd">
<svg version="1.0" xmlns="http://www.w3.org/2000/svg"
 width="700.000000pt" height="700.000000pt" viewBox="0 0 700.000000 700.000000"
 preserveAspectRatio="xMidYMid meet">
<metadata>
Created by potrace 1.14, written by Peter Selinger 2001-2017
</metadata>
<g transform="translate(0.000000,700.000000) scale(0.100000,-0.100000)"
fill="#000000" stroke="none">
<path d="M3269 6886 c-2 -2 -40 -7 -84 -10 -44 -4 -91 -9 -105 -11 -14 -2 -45
-7 -70 -10 -195 -26 -560 -119 -705 -180 -16 -7 -70 -30 -120 -50 -146 -61
-347 -165 -479 -248 -71 -44 -233 -155 -252 -172 -6 -5 -26 -21 -44 -35 -119
-89 -369 -327 -482 -460 -91 -108 -210 -263 -243 -318 -6 -9 -27 -42 -47 -73
-185 -286 -370 -721 -433 -1019 -2 -8 -9 -37 -15 -65 -15 -62 -17 -74 -24
-116 -3 -19 -8 -43 -10 -55 -2 -12 -8 -45 -11 -75 -4 -30 -9 -65 -11 -79 -26
-170 -25 -686 1 -829 1 -9 5 -38 9 -66 62 -460 252 -964 515 -1365 65 -100
209 -292 277 -370 61 -70 272 -281 344 -344 199 -173 459 -346 709 -471 162
-81 462 -199 556 -220 11 -2 54 -13 95 -24 100 -27 252 -59 344 -71 41 -6 83
-12 93 -14 71 -14 223 -21 438 -20 219 0 280 3 395 19 14 2 50 7 80 10 30 4
64 9 75 11 440 80 812 218 1177 435 91 54 309 203 341 232 7 7 35 30 62 52
113 90 314 286 426 415 213 245 427 588 543 870 15 36 33 79 41 95 7 17 34 91
59 165 63 189 112 393 141 595 4 22 8 50 10 62 20 124 28 583 12 733 -5 41
-10 91 -12 110 -3 31 -14 103 -30 195 -3 17 -12 62 -21 100 -9 39 -18 80 -20
92 -16 83 -98 335 -157 483 -30 76 -151 321 -200 405 -380 657 -979 1176
-1679 1454 -170 68 -405 140 -543 167 -89 18 -158 29 -226 38 -25 4 -57 9 -72
11 -14 3 -47 8 -74 11 -56 6 -569 15 -574 10z m1770 -1378 c68 -26 148 -103
181 -173 19 -40 24 -68 24 -140 1 -81 -2 -96 -28 -148 -105 -206 -373 -256
-535 -98 -64 62 -91 118 -105 213 -4 30 16 24 -306 97 -47 11 -96 22 -110 25
-14 2 -96 21 -182 40 -86 20 -159 36 -160 36 -2 0 -4 -8 -5 -17 -1 -10 -13
-67 -28 -128 -14 -60 -38 -171 -55 -245 -16 -74 -56 -256 -90 -404 -33 -148
-59 -270 -57 -272 1 -1 41 -5 89 -9 49 -3 96 -8 105 -9 10 -2 43 -7 73 -10
121 -14 322 -63 457 -112 118 -42 294 -127 381 -183 68 -45 77 -47 89 -28 15
24 93 69 158 93 150 55 326 21 446 -85 153 -134 196 -359 104 -546 -28 -58
-122 -158 -167 -177 -28 -13 -29 -14 -21 -63 10 -63 9 -297 -1 -349 -102 -512
-613 -934 -1302 -1076 -273 -56 -626 -62 -904 -14 -400 68 -771 241 -1017 474
-170 162 -278 332 -339 535 -23 78 -27 109 -28 230 0 77 2 163 7 191 7 48 6
51 -17 62 -84 38 -182 158 -211 259 -87 297 131 589 435 584 36 -1 79 -4 95
-7 45 -8 166 -69 200 -101 l30 -28 68 42 c182 116 519 246 717 278 19 3 60 10
90 15 30 5 84 13 120 16 36 3 74 7 85 9 11 1 36 3 56 4 l35 1 68 308 c37 169
76 345 88 392 11 47 22 96 24 110 3 14 16 77 30 140 14 63 28 124 30 135 23
123 44 155 102 155 20 0 53 -5 72 -10 19 -6 76 -19 125 -30 88 -19 220 -48
340 -75 33 -7 94 -21 135 -30 189 -42 174 -41 201 -3 54 76 121 122 207 142
69 16 128 11 201 -16z"/>
<path d="M2665 3488 c-103 -34 -172 -93 -216 -185 -61 -127 -36 -273 62 -374
216 -222 596 -60 577 247 -12 181 -143 314 -318 320 -41 1 -88 -2 -105 -8z"/>
<path d="M4143 3482 c-96 -34 -152 -84 -204 -182 -20 -38 -24 -59 -24 -135 0
-77 4 -98 26 -145 88 -184 306 -250 484 -146 118 69 180 220 151 364 -19 93
-103 194 -194 234 -67 29 -173 33 -239 10z"/>
<path d="M2775 2490 c-28 -11 -44 -31 -51 -69 -6 -29 -2 -37 42 -79 54 -52
174 -118 274 -151 408 -132 975 -60 1194 151 44 43 48 50 42 80 -8 41 -32 65
-70 72 -24 4 -42 -4 -95 -43 -112 -83 -220 -121 -422 -150 -77 -11 -312 -11
-372 -1 -23 5 -58 10 -77 13 -148 21 -289 79 -365 149 -16 15 -34 28 -40 29
-5 0 -17 2 -25 3 -8 2 -24 0 -35 -4z"/>
</g>
</svg>
